<svg width="17" height="20" fill="none" xmlns="http://www.w3.org/2000/svg"><path d="M15.847 14.891c-.29.668-.633 1.282-1.03 1.847-.541.77-.984 1.303-1.326 1.6-.53.485-1.097.734-1.704.748-.437 0-.963-.123-1.575-.375-.614-.25-1.179-.374-1.695-.374-.541 0-1.122.124-1.743.374-.622.252-1.123.383-1.506.396-.583.024-1.164-.232-1.743-.77-.37-.322-.833-.873-1.387-1.655-.595-.836-1.084-1.804-1.467-2.908-.41-1.192-.616-2.347-.616-3.465 0-1.28.277-2.385.832-3.31a4.88 4.88 0 011.745-1.76 4.7 4.7 0 012.357-.665c.463 0 1.07.143 1.824.424.752.281 1.235.424 1.447.424.158 0 .695-.167 1.604-.5.86-.309 1.586-.436 2.18-.386 1.611.13 2.822.763 3.627 1.905-1.441.871-2.154 2.091-2.14 3.657.013 1.219.457 2.233 1.328 3.04.395.373.835.662 1.326.867-.107.308-.219.603-.338.886zM12.152.382c0 .956-.35 1.848-1.047 2.674-.842.982-1.86 1.55-2.964 1.46a2.97 2.97 0 01-.022-.362c0-.918.4-1.9 1.11-2.702A4.277 4.277 0 0110.584.438C11.13.172 11.646.025 12.132 0c.014.128.02.256.02.382z" fill="#fff"/></svg>