<svg xmlns="http://www.w3.org/2000/svg" width="21" height="20"><path fill="#FFF" d="M10.447 1.72c2.553 0 2.855.009 3.863.056.932.042 1.438.198 1.775.328.445.173.765.38 1.099.714.335.334.542.653.716 1.098.131.336.286.842.329 1.772.046 1.007.056 1.309.056 3.857 0 2.549-.01 2.85-.056 3.857-.043.931-.198 1.437-.329 1.772a2.966 2.966 0 01-.716 1.098 2.957 2.957 0 01-1.099.714c-.338.131-.844.286-1.775.329-1.008.045-1.311.055-3.863.055-2.553 0-2.855-.01-3.863-.055-.932-.043-1.438-.198-1.775-.329-.446-.173-.765-.38-1.099-.714s-.542-.652-.715-1.098c-.131-.336-.287-.842-.329-1.772-.046-1.007-.056-1.308-.056-3.857 0-2.548.01-2.85.056-3.857.042-.93.198-1.436.329-1.772.173-.445.381-.763.715-1.098a2.957 2.957 0 011.099-.714c.337-.13.843-.286 1.775-.328 1.008-.047 1.311-.056 3.863-.056zm0-1.72C7.851 0 7.525.011 6.505.058c-1.017.046-1.712.207-2.32.443a4.684 4.684 0 00-1.693 1.101 4.683 4.683 0 00-1.103 1.69C1.152 3.9.991 4.594.944 5.609.898 6.627.887 6.952.887 9.544s.011 2.918.058 3.936c.046 1.016.208 1.709.445 2.316.244.627.571 1.16 1.102 1.69.532.53 1.065.856 1.693 1.102.608.235 1.303.397 2.321.442 1.02.047 1.345.058 3.942.058 2.596 0 2.922-.011 3.941-.058 1.018-.045 1.713-.207 2.32-.442a4.703 4.703 0 001.694-1.102 4.692 4.692 0 001.103-1.69c.236-.607.398-1.301.443-2.316.047-1.018.059-1.344.059-3.936s-.012-2.917-.059-3.935c-.045-1.016-.207-1.709-.443-2.317a4.666 4.666 0 00-1.103-1.69A4.687 4.687 0 0016.709.501c-.607-.236-1.303-.397-2.32-.443C13.369.011 13.043 0 10.447 0zm0 4.643a4.906 4.906 0 00-4.909 4.901 4.904 4.904 0 004.909 4.901 4.904 4.904 0 004.909-4.901 4.906 4.906 0 00-4.909-4.901zm0 8.084A3.185 3.185 0 017.26 9.545a3.184 3.184 0 013.187-3.181 3.184 3.184 0 013.187 3.181 3.185 3.185 0 01-3.187 3.182zm6.251-8.277a1.147 1.147 0 01-2.294 0 1.146 1.146 0 012.294 0z"/></svg>