<svg width="20" height="20" fill="none" xmlns="http://www.w3.org/2000/svg"><path d="M9.885 0a9.51 9.51 0 100 19.019A9.51 9.51 0 009.885 0zm4.374 13.741c-.19.285-.523.38-.808.19-2.235-1.379-5.04-1.664-8.368-.903-.333.095-.618-.143-.713-.428-.096-.333.142-.618.428-.713 3.613-.809 6.751-.476 9.223 1.046.333.143.38.523.238.808zm1.142-2.615c-.239.333-.666.475-1 .237-2.566-1.568-6.465-2.044-9.46-1.093-.381.095-.81-.095-.904-.475-.095-.38.095-.809.475-.904 3.47-1.045 7.75-.523 10.698 1.284.285.143.428.618.19.95zm.094-2.663c-3.043-1.806-8.13-1.997-11.03-1.094A.89.89 0 013.37 6.8a.892.892 0 01.57-1.093c3.376-1 8.94-.809 12.458 1.284.428.237.57.807.333 1.235-.238.333-.809.476-1.237.238z" fill="#fff"/></svg>