<svg width="44" height="74" viewBox="0 0 44 74" fill="none" xmlns="http://www.w3.org/2000/svg">
<path d="M42.2917 34.1107L9.36252 1.18212C8.60091 0.419909 7.58423 0 6.50017 0C5.4161 0 4.39942 0.419909 3.63781 1.18212L1.2128 3.60652C-0.365164 5.1863 -0.365164 7.75388 1.2128 9.33124L28.8642 36.9827L1.18212 64.6648C0.420511 65.427 0 66.4431 0 67.5265C0 68.6112 0.420511 69.6273 1.18212 70.3901L3.60713 72.8139C4.36934 73.5761 5.38542 73.996 6.46948 73.996C7.55355 73.996 8.57023 73.5761 9.33184 72.8139L42.2917 39.8552C43.0551 39.0906 43.4744 38.0697 43.472 36.9845C43.4744 35.895 43.0551 34.8747 42.2917 34.1107Z" fill="white"/>
</svg>
