<svg width="133" height="31" viewBox="0 0 154 31" fill="none" xmlns="http://www.w3.org/2000/svg"><path d="M99.686.561h-10.16v16.523c0 1.213-.265 2.155-.792 2.825-.529.657-1.278.985-2.248.985-.984 0-1.748-.336-2.29-1.006-.543-.685-.813-1.62-.813-2.804V.561H63.367v16.523c0 1.213-.264 2.155-.792 2.825-.528.657-1.278.985-2.247.985-.985 0-1.749-.336-2.29-1.006-.543-.685-.814-1.62-.814-2.804V.561H46.93v5.287a8.505 8.505 0 00-1.843-2.59c-.913-.87-2.008-1.538-3.285-2.002-1.277-.463-2.686-.695-4.227-.695h-14.34v6.157c-.176-.89-.475-1.715-.932-2.454-.742-1.199-1.82-2.112-3.232-2.74-1.398-.642-3.068-.963-5.008-.963H0v28.894h15.26c1.97 0 3.656-.318 5.062-.953 1.235-.557 2.195-1.349 2.912-2.346v3.3H33.53v-9.333l4.708 9.332h12.05l-7.49-11.536c1.783-.713 3.074-1.666 3.873-2.857.099-.148.173-.317.26-.476v3.333c0 3.01.463 5.28 1.39 6.806 1.07 1.77 2.622 3.118 4.655 4.045 2.034.927 4.484 1.391 7.352 1.391 1.84 0 3.51-.192 5.008-.578 1.499-.398 2.804-.977 3.917-1.733 1.127-.756 2.03-1.68 2.708-2.772.677-1.091 1.116-2.322 1.316-3.692l.034-.232c.223 1.458.61 2.652 1.168 3.572 1.07 1.769 2.623 3.117 4.655 4.044 2.034.928 4.484 1.392 7.352 1.392 1.841 0 3.51-.193 5.008-.578 1.499-.4 2.804-.978 3.917-1.734 1.127-.756 2.03-1.68 2.708-2.772.678-1.09 1.116-2.322 1.316-3.691.257-1.67.385-2.826.385-3.468V9.936h5.56v19.52h10.359V9.936h5.607V.562h-21.66V.56zM9.953 7.581c1.084 0 1.822.025 2.215.075.392.05.717.175.974.375.385.3.577.834.577 1.605 0 .67-.213 1.142-.642 1.413-.17.128-.442.231-.813.31-.371.079-1.142.118-2.311.118V7.58zm4.195 14.255c-.471.342-1.256.513-2.355.513h-1.84v-4.516h1.755c2.068 0 3.103.764 3.103 2.29 0 .8-.221 1.37-.663 1.712zm8.026-5.843c-.857-.585-1.998-1.056-3.425-1.413 1.684-.57 2.882-1.313 3.596-2.226.433-.564.719-1.282.89-2.12v6.685a5.685 5.685 0 00-1.061-.927zm15.272-3.832c-.157.329-.45.593-.878.792-.628.272-1.577.407-2.846.407V8.459c1.455 0 2.468.164 3.039.492.613.357.92 1.02.92 1.99 0 .486-.079.893-.235 1.22zm94.904 10.787c-.435-.694-1.048-1.238-1.842-1.632-.795-.393-1.686-.59-2.674-.59-1.575 0-2.88.43-3.914 1.29-1.035.862-1.552 1.96-1.552 3.294 0 .948.254 1.763.761 2.443a4.814 4.814 0 001.982 1.551 6.358 6.358 0 002.563.531c.908 0 1.769-.18 2.583-.54.828-.347 1.492-.861 1.992-1.542.501-.68.751-1.495.751-2.443 0-.88-.217-1.668-.65-2.362zM132.26.583h-9.151v18.5h9.151V.584z" fill="#fff"/></svg>